<?xml version="1.0" encoding="UTF-8"?>
<svg width="16px" height="16px" viewBox="0 0 16 16" version="1.1" xmlns="http://www.w3.org/2000/svg" xmlns:xlink="http://www.w3.org/1999/xlink">
    <!-- Generator: sketchtool 53.2 (72643) - https://sketchapp.com -->
    <title>51586931-F503-4A2A-A237-B95C2F75BDB0</title>
    <desc>Created with sketchtool.</desc>
    <defs>
        <path d="M15.0575154,0.942484633 C14.4486607,0.334430031 13.6405881,0 12.7797108,0 C11.9204337,0 11.110761,0.334430031 10.5027064,0.943284705 L1.37548675,10.0713044 C1.27307755,10.1737136 1.19947094,10.3025251 1.16506785,10.4425377 L0.0233653279,15.0069476 C-0.043840707,15.278972 0.0361664774,15.568598 0.234584295,15.7654157 C0.432202041,15.9646336 0.721027977,16.0446408 0.993852476,15.9766347 L5.55826235,14.8349321 C5.69827492,14.8005291 5.82708649,14.7269225 5.92949569,14.6245133 L15.0567153,5.49649357 C15.6647699,4.88843897 15.9991999,4.07876627 16,3.2194891 C16,2.3586118 15.66557,1.54973916 15.0567153,0.941684562 L15.0575154,0.942484633 Z M5.66147162,11.46983 L11.6388084,5.49249322 L12.2204606,6.0725453 L5.85588908,12.4371168 L5.66147162,11.46983 Z M4.53017003,10.3377283 L3.56288317,10.144911 L9.92825477,3.78033947 L10.5083069,4.36119163 L4.53017003,10.3377283 Z M2.53239063,11.570639 L4.1133326,11.8866674 L4.43016105,13.4684094 L1.8995338,14.1012663 L2.53239063,11.570639 Z M11.0587563,2.64903788 L11.634808,2.07458629 C12.247663,1.4633314 13.3149589,1.4633314 13.9262138,2.07458629 L13.9246136,2.07378622 C14.5366686,2.68584118 14.5366686,3.75313702 13.9246136,4.36519199 L13.350162,4.94124371 L11.0587563,2.64903788 Z" id="path-1"></path>
    </defs>
    <g id="Woocommerce-1" stroke="none" stroke-width="1" fill="none" fill-rule="evenodd">
        <g id="04_Transactional_woocommerce" transform="translate(-1102.000000, -410.000000)">
            <g id="Group-2" transform="translate(1102.000000, 408.000000)">
                <g id="iconography/classic/eye" transform="translate(0.000000, 2.000000)">
                    <mask id="mask-2" fill="white">
                        <use xlink:href="#path-1"></use>
                    </mask>
                    <use id="Shape" fill="#6E6E6E" fill-rule="nonzero" xlink:href="#path-1"></use>
                    <g id="🎨color" mask="url(#mask-2)" fill="#555555">
                        <rect id="path" x="0" y="0" width="16" height="16" rx="1"></rect>
                    </g>
                </g>
            </g>
        </g>
    </g>
</svg>