<svg width="72" height="24" viewBox="0 0 72 24" fill="none" xmlns="http://www.w3.org/2000/svg">
<mask id="mask0_2_51" style="mask-type:luminance" maskUnits="userSpaceOnUse" x="0" y="0" width="72" height="24">
<path d="M0 24H71.25V0H0V24Z" fill="white"/>
</mask>
<g mask="url(#mask0_2_51)">
<path fill-rule="evenodd" clip-rule="evenodd" d="M68.3251 22.7025V18.945L69.0676 18.5175V19.9725C69.2326 19.8525 69.5026 19.7475 69.7576 19.7475C70.5751 19.7475 71.1451 20.31 71.1451 21.135V22.71H70.3951V21.21C70.3951 20.745 70.1101 20.475 69.7351 20.475C69.3226 20.475 69.0751 20.7675 69.0751 21.2025V22.7025H68.3251ZM65.0776 21.2625C65.0776 20.37 65.7151 19.7475 66.6151 19.7475C67.1701 19.7475 67.6726 20.04 67.9126 20.4825L67.2751 20.865C67.2115 20.7419 67.1144 20.6392 66.9949 20.5689C66.8755 20.4985 66.7386 20.4634 66.6001 20.4675C66.1651 20.4675 65.8351 20.79 65.8351 21.2625C65.8351 21.7125 66.1351 22.065 66.6076 22.065C66.9076 22.065 67.1626 21.915 67.2826 21.6675L67.9276 22.0425C67.7938 22.2712 67.6019 22.4603 67.3714 22.5907C67.1409 22.7211 66.8799 22.7882 66.6151 22.785C66.4122 22.7934 66.2098 22.7598 66.0205 22.6865C65.8312 22.6131 65.659 22.5015 65.5147 22.3586C65.3705 22.2158 65.2572 22.0447 65.182 21.8561C65.1068 21.6675 65.0712 21.4655 65.0776 21.2625ZM61.8526 22.7025V21.15C61.8526 20.355 62.4451 19.7475 63.2626 19.7475C64.0876 19.7475 64.6726 20.4 64.6726 21.15V22.7025H63.9226V21.2025C63.9226 20.7525 63.6376 20.475 63.2626 20.475C62.8501 20.475 62.6101 20.7675 62.6101 21.2025V22.7025H61.8601H61.8526ZM60.6001 22.7025V20.175L61.3351 19.7475V22.7025H60.6001ZM57.6376 22.1625L58.2976 21.7875C58.4251 22.0425 58.6426 22.1775 58.9576 22.1775C59.2426 22.1775 59.4226 22.0425 59.4226 21.855C59.4226 21.675 59.1751 21.6075 58.7476 21.5175C58.1551 21.39 57.7726 21.15 57.7726 20.655C57.7726 20.115 58.3201 19.7475 58.9351 19.7475C59.4601 19.7475 59.8126 19.89 60.1351 20.28L59.5051 20.64C59.3851 20.4375 59.2051 20.34 58.9426 20.34C58.6726 20.34 58.5226 20.4525 58.5226 20.6175C58.5226 20.8125 58.8226 20.8575 59.2276 20.955C59.7751 21.0975 60.2026 21.285 60.2026 21.8325C60.2026 22.4025 59.6401 22.7925 58.9351 22.7925C58.3576 22.785 57.9226 22.62 57.6376 22.1625ZM55.8376 20.1375L54.7876 22.8825C54.5626 23.46 54.1651 23.79 53.6326 23.76V23.3325C53.9776 23.3625 54.1951 23.145 54.3301 22.8075L54.3751 22.71L53.2501 20.1375H53.7301L54.6151 22.1625L55.3651 20.1375H55.8451H55.8376ZM52.6576 21.435C52.6576 20.91 52.2601 20.505 51.7426 20.505C51.2176 20.505 50.8201 20.91 50.8201 21.435C50.8201 21.96 51.2176 22.3575 51.7426 22.3575C52.2676 22.3575 52.6576 21.96 52.6576 21.435ZM53.1076 21.435C53.1076 22.2 52.5226 22.7925 51.8026 22.7925C51.6087 22.7994 51.4164 22.7561 51.2443 22.6667C51.0721 22.5774 50.926 22.445 50.8201 22.2825V22.7325H50.3701V19.11H50.8201V20.5875C51.0301 20.2725 51.3526 20.0775 51.7951 20.0775C52.5226 20.0775 53.1151 20.67 53.1151 21.4275M69.3301 7.44753V14.22H67.6351V7.44003H66.4801V5.75253H67.6426L67.6351 3.10503H69.3301V5.75253H71.1451V7.44003H69.3301V7.44753ZM59.0251 9.28503C59.0843 8.87776 59.2344 8.48903 59.4642 8.14759C59.694 7.80616 59.9976 7.52077 60.3526 7.31253C60.7031 7.11514 61.0988 7.01206 61.5011 7.01337C61.9033 7.01469 62.2984 7.12035 62.6476 7.32003C63.0054 7.52107 63.3117 7.80257 63.5421 8.1423C63.7725 8.48202 63.9207 8.87067 63.9751 9.27753H59.0251V9.28503ZM65.3101 8.06253C64.9859 7.31256 64.4553 6.67012 63.7801 6.21003C63.1091 5.75103 62.3129 5.51009 61.5001 5.52003C60.7276 5.52003 60.0226 5.72253 59.3701 6.12003C58.7167 6.52748 58.1791 7.09602 57.8087 7.77109C57.4383 8.44615 57.2477 9.20508 57.2551 9.97503C57.2477 10.745 57.4383 11.5039 57.8087 12.179C58.1791 12.854 58.7167 13.4226 59.3701 13.83C59.9192 14.1758 60.5447 14.3819 61.1918 14.4303C61.839 14.4786 62.4881 14.3678 63.0826 14.1075C63.5784 13.8949 64.029 13.5894 64.4101 13.2075C64.7966 12.8239 65.1116 12.3744 65.3401 11.88H63.3301C63.1501 12.09 62.9401 12.27 62.7001 12.4125C62.1743 12.713 61.5549 12.8049 60.9645 12.6702C60.3741 12.5355 59.8559 12.1838 59.5126 11.685C59.2883 11.3505 59.1375 10.9721 59.0701 10.575H65.6851C65.7843 9.71911 65.6549 8.85217 65.3101 8.06253ZM55.9501 3.67503C55.9501 3.91372 55.8552 4.14264 55.6865 4.31143C55.5177 4.48021 55.2888 4.57503 55.0501 4.57503C54.8114 4.57503 54.5825 4.48021 54.4137 4.31143C54.2449 4.14264 54.1501 3.91372 54.1501 3.67503C54.1501 3.43633 54.2449 3.20742 54.4137 3.03863C54.5825 2.86985 54.8114 2.77503 55.0501 2.77503C55.2888 2.77503 55.5177 2.86985 55.6865 3.03863C55.8552 3.20742 55.9501 3.43633 55.9501 3.67503ZM52.2751 18.4275V16.74C52.6103 16.7418 52.9403 16.6572 53.2332 16.4943C53.5262 16.3314 53.7722 16.0957 53.9476 15.81C54.1201 15.525 54.2026 15.21 54.2026 14.865V5.76003H55.8976V14.8725C55.8966 15.3458 55.8016 15.8142 55.618 16.2504C55.4344 16.6866 55.1659 17.082 54.8281 17.4135C54.4904 17.745 54.09 18.006 53.6504 18.1814C53.2109 18.3568 52.7408 18.443 52.2676 18.435M50.3926 14.205H52.0801V1.53003H50.4001V14.205H50.3926ZM48.3301 3.67503C48.3301 3.91372 48.2353 4.14264 48.0665 4.31143C47.8977 4.48021 47.6688 4.57503 47.4301 4.57503C47.1914 4.57503 46.9625 4.48021 46.7937 4.31143C46.6249 4.14264 46.5301 3.91372 46.5301 3.67503C46.5301 3.43633 46.6249 3.20742 46.7937 3.03863C46.9625 2.86985 47.1914 2.77503 47.4301 2.77503C47.6688 2.77503 47.8977 2.86985 48.0665 3.03863C48.2353 3.20742 48.3301 3.43633 48.3301 3.67503ZM46.5751 14.2125H48.2701V5.76003H46.5751V14.2125ZM40.0801 12.795C40.5478 12.8057 41.0078 12.675 41.4001 12.42C41.7901 12.165 42.0826 11.82 42.3001 11.4C42.5101 10.9725 42.6151 10.5 42.6151 9.98253C42.6151 9.45753 42.5101 8.98503 42.3001 8.55753C42.0989 8.14167 41.7876 7.78889 41.4001 7.53753C40.9931 7.29058 40.5261 7.16 40.0501 7.16C39.574 7.16 39.1071 7.29058 38.7001 7.53753C38.2797 7.79071 37.9331 8.14975 37.6949 8.57879C37.4567 9.00783 37.3352 9.49185 37.3426 9.98253C37.3418 10.4735 37.4686 10.9563 37.7105 11.3836C37.9524 11.8109 38.3012 12.168 38.7226 12.42C39.1426 12.675 39.5926 12.795 40.0801 12.795ZM44.4601 5.76003V14.2125H42.7501V12.9225C42.4741 13.3901 42.0784 13.7756 41.6038 14.0392C41.1292 14.3029 40.5929 14.4352 40.0501 14.4225C38.8727 14.4109 37.7467 13.939 36.9128 13.1079C36.0788 12.2768 35.6032 11.1523 35.5876 9.97503C35.5974 8.79453 36.0707 7.66516 36.9054 6.83039C37.7402 5.99563 38.8696 5.52233 40.0501 5.51253C40.5943 5.50136 41.1317 5.63594 41.6064 5.90232C42.0811 6.1687 42.476 6.55719 42.7501 7.02753V5.75253H44.4526L44.4601 5.76003ZM21.3226 5.76003H23.0251V6.73503C23.2051 6.48003 23.4001 6.28503 23.5876 6.12753C23.9855 5.80483 24.4854 5.63464 24.9976 5.64753C25.6201 5.64753 26.1751 5.79003 26.6626 6.07503C27.1501 6.35253 27.5626 6.75003 27.8926 7.26003C28.1894 6.76096 28.6127 6.34907 29.1197 6.06595C29.6267 5.78282 30.1995 5.63849 30.7801 5.64753C31.4851 5.64753 32.1151 5.82753 32.6776 6.18753C33.2364 6.54527 33.6875 7.0482 33.9826 7.64253C34.2901 8.25003 34.4476 8.91753 34.4476 9.64503V14.2125H32.7526V9.64503C32.7526 9.21753 32.6776 8.82753 32.5126 8.48253C32.3612 8.14607 32.1198 7.85798 31.8151 7.65003C31.5076 7.44255 31.1435 7.33516 30.7726 7.34253C30.3826 7.34253 30.0376 7.44003 29.7226 7.64253C29.4151 7.85253 29.1676 8.13003 28.9951 8.48253C28.8226 8.83503 28.7401 9.22503 28.7401 9.64503V14.2125H27.0451V9.64503C27.0479 9.24253 26.958 8.84478 26.7826 8.48253C26.6164 8.14431 26.3626 7.85683 26.0476 7.65003C25.7361 7.445 25.3704 7.33791 24.9976 7.34253C24.6226 7.34253 24.2851 7.44753 23.9926 7.66503C23.6926 7.88253 23.4526 8.17503 23.2801 8.53503C23.1073 8.90593 23.0202 9.31091 23.0251 9.72003V14.2125H21.3226V5.76003Z" fill="white"/>
<path fill-rule="evenodd" clip-rule="evenodd" d="M68.3251 22.7025V18.945L69.0676 18.5175V19.9725C69.2326 19.8525 69.5026 19.7475 69.7576 19.7475C70.5751 19.7475 71.1451 20.31 71.1451 21.135V22.71H70.3951V21.21C70.3951 20.745 70.1101 20.475 69.7351 20.475C69.3226 20.475 69.0751 20.7675 69.0751 21.2025V22.7025H68.3251ZM65.0776 21.2625C65.0776 20.37 65.7151 19.7475 66.6151 19.7475C67.1701 19.7475 67.6726 20.04 67.9126 20.4825L67.2751 20.865C67.2115 20.7419 67.1144 20.6392 66.9949 20.5689C66.8755 20.4985 66.7386 20.4634 66.6001 20.4675C66.1651 20.4675 65.8351 20.79 65.8351 21.2625C65.8351 21.7125 66.1351 22.065 66.6076 22.065C66.9076 22.065 67.1626 21.915 67.2826 21.6675L67.9276 22.0425C67.7938 22.2712 67.6019 22.4603 67.3714 22.5907C67.1409 22.7211 66.8799 22.7882 66.6151 22.785C66.4122 22.7934 66.2098 22.7598 66.0205 22.6865C65.8312 22.6131 65.659 22.5015 65.5147 22.3586C65.3705 22.2158 65.2572 22.0447 65.182 21.8561C65.1068 21.6675 65.0712 21.4655 65.0776 21.2625ZM61.8526 22.7025V21.15C61.8526 20.355 62.4451 19.7475 63.2626 19.7475C64.0876 19.7475 64.6726 20.4 64.6726 21.15V22.7025H63.9226V21.2025C63.9226 20.7525 63.6376 20.475 63.2626 20.475C62.8501 20.475 62.6101 20.7675 62.6101 21.2025V22.7025H61.8601H61.8526ZM60.6001 22.7025V20.175L61.3351 19.7475V22.7025H60.6001ZM57.6376 22.1625L58.2976 21.7875C58.4251 22.0425 58.6426 22.1775 58.9576 22.1775C59.2426 22.1775 59.4226 22.0425 59.4226 21.855C59.4226 21.675 59.1751 21.6075 58.7476 21.5175C58.1551 21.39 57.7726 21.15 57.7726 20.655C57.7726 20.115 58.3201 19.7475 58.9351 19.7475C59.4601 19.7475 59.8126 19.89 60.1351 20.28L59.5051 20.64C59.3851 20.4375 59.2051 20.34 58.9426 20.34C58.6726 20.34 58.5226 20.4525 58.5226 20.6175C58.5226 20.8125 58.8226 20.8575 59.2276 20.955C59.7751 21.0975 60.2026 21.285 60.2026 21.8325C60.2026 22.4025 59.6401 22.7925 58.9351 22.7925C58.3576 22.785 57.9226 22.62 57.6376 22.1625ZM55.8376 20.1375L54.7876 22.8825C54.5626 23.46 54.1651 23.79 53.6326 23.76V23.3325C53.9776 23.3625 54.1951 23.145 54.3301 22.8075L54.3751 22.71L53.2501 20.1375H53.7301L54.6151 22.1625L55.3651 20.1375H55.8451H55.8376ZM52.6576 21.435C52.6576 20.91 52.2601 20.505 51.7426 20.505C51.2176 20.505 50.8201 20.91 50.8201 21.435C50.8201 21.96 51.2176 22.3575 51.7426 22.3575C52.2676 22.3575 52.6576 21.96 52.6576 21.435ZM53.1076 21.435C53.1076 22.2 52.5226 22.7925 51.8026 22.7925C51.6087 22.7994 51.4164 22.7561 51.2443 22.6667C51.0721 22.5774 50.926 22.445 50.8201 22.2825V22.7325H50.3701V19.11H50.8201V20.5875C51.0301 20.2725 51.3526 20.0775 51.7951 20.0775C52.5226 20.0775 53.1151 20.67 53.1151 21.4275M69.3301 7.44753V14.22H67.6351V7.44003H66.4801V5.75253H67.6426L67.6351 3.10503H69.3301V5.75253H71.1451V7.44003H69.3301V7.44753ZM59.0251 9.28503C59.0843 8.87776 59.2344 8.48903 59.4642 8.14759C59.694 7.80616 59.9976 7.52077 60.3526 7.31253C60.7031 7.11514 61.0988 7.01206 61.5011 7.01337C61.9033 7.01469 62.2984 7.12035 62.6476 7.32003C63.0054 7.52107 63.3117 7.80257 63.5421 8.1423C63.7725 8.48202 63.9207 8.87067 63.9751 9.27753H59.0251V9.28503ZM65.3101 8.06253C64.9859 7.31256 64.4553 6.67012 63.7801 6.21003C63.1091 5.75103 62.3129 5.51009 61.5001 5.52003C60.7276 5.52003 60.0226 5.72253 59.3701 6.12003C58.7167 6.52748 58.1791 7.09602 57.8087 7.77109C57.4383 8.44615 57.2477 9.20508 57.2551 9.97503C57.2477 10.745 57.4383 11.5039 57.8087 12.179C58.1791 12.854 58.7167 13.4226 59.3701 13.83C59.9192 14.1758 60.5447 14.3819 61.1918 14.4303C61.839 14.4786 62.4881 14.3678 63.0826 14.1075C63.5784 13.8949 64.029 13.5894 64.4101 13.2075C64.7966 12.8239 65.1116 12.3744 65.3401 11.88H63.3301C63.1501 12.09 62.9401 12.27 62.7001 12.4125C62.1743 12.713 61.5549 12.8049 60.9645 12.6702C60.3741 12.5355 59.8559 12.1838 59.5126 11.685C59.2883 11.3505 59.1375 10.9721 59.0701 10.575H65.6851C65.7843 9.71911 65.6549 8.85217 65.3101 8.06253ZM55.9501 3.67503C55.9501 3.91372 55.8552 4.14264 55.6865 4.31143C55.5177 4.48021 55.2888 4.57503 55.0501 4.57503C54.8114 4.57503 54.5825 4.48021 54.4137 4.31143C54.2449 4.14264 54.1501 3.91372 54.1501 3.67503C54.1501 3.43633 54.2449 3.20742 54.4137 3.03863C54.5825 2.86985 54.8114 2.77503 55.0501 2.77503C55.2888 2.77503 55.5177 2.86985 55.6865 3.03863C55.8552 3.20742 55.9501 3.43633 55.9501 3.67503ZM52.2751 18.4275V16.74C52.6103 16.7418 52.9403 16.6572 53.2332 16.4943C53.5262 16.3314 53.7722 16.0957 53.9476 15.81C54.1201 15.525 54.2026 15.21 54.2026 14.865V5.76003H55.8976V14.8725C55.8966 15.3458 55.8016 15.8142 55.618 16.2504C55.4344 16.6866 55.1659 17.082 54.8281 17.4135C54.4904 17.745 54.09 18.006 53.6504 18.1814C53.2109 18.3568 52.7408 18.443 52.2676 18.435M50.3926 14.205H52.0801V1.53003H50.4001V14.205H50.3926ZM48.3301 3.67503C48.3301 3.91372 48.2353 4.14264 48.0665 4.31143C47.8977 4.48021 47.6688 4.57503 47.4301 4.57503C47.1914 4.57503 46.9625 4.48021 46.7937 4.31143C46.6249 4.14264 46.5301 3.91372 46.5301 3.67503C46.5301 3.43633 46.6249 3.20742 46.7937 3.03863C46.9625 2.86985 47.1914 2.77503 47.4301 2.77503C47.6688 2.77503 47.8977 2.86985 48.0665 3.03863C48.2353 3.20742 48.3301 3.43633 48.3301 3.67503ZM46.5751 14.2125H48.2701V5.76003H46.5751V14.2125ZM40.0801 12.795C40.5478 12.8057 41.0078 12.675 41.4001 12.42C41.7901 12.165 42.0826 11.82 42.3001 11.4C42.5101 10.9725 42.6151 10.5 42.6151 9.98253C42.6151 9.45753 42.5101 8.98503 42.3001 8.55753C42.0989 8.14167 41.7876 7.78889 41.4001 7.53753C40.9931 7.29058 40.5261 7.16 40.0501 7.16C39.574 7.16 39.1071 7.29058 38.7001 7.53753C38.2797 7.79071 37.9331 8.14975 37.6949 8.57879C37.4567 9.00783 37.3352 9.49185 37.3426 9.98253C37.3418 10.4735 37.4686 10.9563 37.7105 11.3836C37.9524 11.8109 38.3012 12.168 38.7226 12.42C39.1426 12.675 39.5926 12.795 40.0801 12.795ZM44.4601 5.76003V14.2125H42.7501V12.9225C42.4741 13.3901 42.0784 13.7756 41.6038 14.0392C41.1292 14.3029 40.5929 14.4352 40.0501 14.4225C38.8727 14.4109 37.7467 13.939 36.9128 13.1079C36.0788 12.2768 35.6032 11.1523 35.5876 9.97503C35.5974 8.79453 36.0707 7.66516 36.9054 6.83039C37.7402 5.99563 38.8696 5.52233 40.0501 5.51253C40.5943 5.50136 41.1317 5.63594 41.6064 5.90232C42.0811 6.1687 42.476 6.55719 42.7501 7.02753V5.75253H44.4526L44.4601 5.76003ZM21.3226 5.76003H23.0251V6.73503C23.2051 6.48003 23.4001 6.28503 23.5876 6.12753C23.9855 5.80483 24.4854 5.63464 24.9976 5.64753C25.6201 5.64753 26.1751 5.79003 26.6626 6.07503C27.1501 6.35253 27.5626 6.75003 27.8926 7.26003C28.1894 6.76096 28.6127 6.34907 29.1197 6.06595C29.6267 5.78282 30.1995 5.63849 30.7801 5.64753C31.4851 5.64753 32.1151 5.82753 32.6776 6.18753C33.2364 6.54527 33.6875 7.0482 33.9826 7.64253C34.2901 8.25003 34.4476 8.91753 34.4476 9.64503V14.2125H32.7526V9.64503C32.7526 9.21753 32.6776 8.82753 32.5126 8.48253C32.3612 8.14607 32.1198 7.85798 31.8151 7.65003C31.5076 7.44255 31.1435 7.33516 30.7726 7.34253C30.3826 7.34253 30.0376 7.44003 29.7226 7.64253C29.4151 7.85253 29.1676 8.13003 28.9951 8.48253C28.8226 8.83503 28.7401 9.22503 28.7401 9.64503V14.2125H27.0451V9.64503C27.0479 9.24253 26.958 8.84478 26.7826 8.48253C26.6164 8.14431 26.3626 7.85683 26.0476 7.65003C25.7361 7.445 25.3704 7.33791 24.9976 7.34253C24.6226 7.34253 24.2851 7.44753 23.9926 7.66503C23.6926 7.88253 23.4526 8.17503 23.2801 8.53503C23.1073 8.90593 23.0202 9.31091 23.0251 9.72003V14.2125H21.3226V5.76003Z" fill="white"/>
</g>
<mask id="mask1_2_51" style="mask-type:luminance" maskUnits="userSpaceOnUse" x="0" y="0" width="72" height="24">
<path d="M0 24H71.25V0H0V24Z" fill="white"/>
</mask>
<g mask="url(#mask1_2_51)">
<path fill-rule="evenodd" clip-rule="evenodd" d="M0.0824585 7.64247L6.50246 10.5525L7.79246 9.26997L4.50746 7.77747L14.6925 3.87747L10.7775 14.0175L9.29246 10.7625L7.99496 12.0525L8.06246 12.2025L10.905 18.435L17.6775 0.907471L0.0824585 7.64247Z" fill="white"/>
</g>
</svg>
