<?xml version="1.0" encoding="UTF-8"?>
<svg width="32px" height="32px" viewBox="0 0 32 32" version="1.1" xmlns="http://www.w3.org/2000/svg" xmlns:xlink="http://www.w3.org/1999/xlink">
    <!-- Generator: Sketch 54.1 (76490) - https://sketchapp.com -->
    <title>Sigles/who</title>
    <desc>Created with Sketch.</desc>
    <g id="Sigles/who" stroke="none" stroke-width="1" fill="none" fill-rule="evenodd">
        <g id="woocommerce" transform="translate(0.000000, 6.500000)" fill-rule="nonzero">
            <path d="M2.969875,0 L29.017125,0 C30.665625,0 32,1.32565359 32,2.96337908 L32,12.8410196 C32,14.4787451 30.665625,15.8043987 29.017125,15.8043987 L19.67625,15.8043987 L20.958375,18.9236275 L15.31975,15.8043987 L2.982875,15.8043987 C1.3345,15.8043987 0.000125,14.4787451 0.000125,12.8410196 L0.000125,2.96337908 C-0.013,1.33869281 1.32125,0 2.969875,0 Z" id="Path" fill="#9B5C8F"></path>
            <path d="M1.82225,2.70098039 C2.004375,2.45534641 2.2775,2.32619608 2.64175,2.30036601 C3.30525,2.2485817 3.6825,2.55866667 3.7735,3.2307451 C4.17675,5.93172549 4.619,8.21917647 5.08725,10.0929739 L7.936,4.70405229 C8.19625,4.2129085 8.5215,3.95448366 8.91175,3.92865359 C9.484125,3.8899085 9.83525,4.25165359 9.978375,5.01413725 C10.303625,6.73283007 10.719875,8.19322222 11.214125,9.43381046 C11.552375,6.15140523 12.12475,3.78646405 12.93125,2.32619608 C13.12625,1.9643268 13.4125,1.78339216 13.78975,1.75743791 C14.089,1.73173203 14.362125,1.82213725 14.60925,2.01598693 C14.856375,2.2098366 14.9865,2.45534641 15.0125,2.75264052 C15.0255,2.98523529 14.9865,3.17908497 14.8825,3.37293464 C14.375125,4.30343791 13.95875,5.86715033 13.620625,8.03811765 C13.2955,10.144634 13.178375,11.7859608 13.256375,12.9619739 C13.2825,13.2848497 13.230375,13.5692288 13.100375,13.8148627 C12.944125,14.0991176 12.710125,14.2542222 12.410875,14.2800523 C12.072625,14.3058824 11.7215,14.150902 11.38325,13.8019477 C10.1735,12.5741503 9.210875,10.739098 8.5085,8.29666667 C7.662875,9.95078431 7.0385,11.1913725 6.63525,12.0184314 C5.86775,13.4788235 5.217375,14.2283922 4.671,14.2671373 C4.31975,14.2929673 4.020625,13.9956732 3.7605,13.3755033 C3.097125,11.6825163 2.381625,8.41290196 1.61425,3.56678431 C1.562125,3.2307451 1.640125,2.93345098 1.82225,2.70098039 L1.82225,2.70098039 Z M29.77675,4.72988235 C29.3085,3.91573856 28.619,3.42471895 27.6955,3.2307451 C27.44825,3.17908497 27.21425,3.1532549 26.993,3.1532549 C25.74425,3.1532549 24.729625,3.79937908 23.936125,5.09175163 C23.259625,6.19015033 22.9215,7.4049085 22.9215,8.73602614 C22.9215,9.73110458 23.129625,10.5839935 23.545875,11.294817 C24.014125,12.1089608 24.703625,12.5999804 25.627125,12.7938301 C25.87425,12.8456144 26.108375,12.8714444 26.329625,12.8714444 C27.591375,12.8714444 28.606,12.2253203 29.3865,10.9329477 C30.062875,9.8215098 30.401125,8.60675163 30.401125,7.27575817 C30.414125,6.26776471 30.193,5.42766667 29.77675,4.72988235 L29.77675,4.72988235 Z M28.13775,8.3095817 C27.955625,9.16247059 27.630375,9.79567974 27.149,10.2221242 C26.771875,10.5581634 26.420625,10.7002288 26.0955,10.6356536 C25.78325,10.5710784 25.523,10.2997386 25.328,9.79567974 C25.17175,9.39506536 25.093875,8.99445098 25.093875,8.61966667 C25.093875,8.29666667 25.119875,7.97354248 25.184875,7.67637255 C25.302,7.14648366 25.523125,6.6295098 25.87425,6.1384902 C26.303625,5.50515686 26.758875,5.24685621 27.227125,5.33726144 C27.539375,5.4018366 27.799625,5.67330065 27.994625,6.17723529 C28.15075,6.57784967 28.22875,6.97846405 28.22875,7.35324837 C28.22875,7.68928758 28.20275,8.01228758 28.13775,8.30945752 L28.13775,8.3095817 Z M21.633625,4.72988235 C21.165375,3.91573856 20.462875,3.42471895 19.552375,3.2307451 C19.30525,3.17908497 19.071125,3.1532549 18.849875,3.1532549 C17.601125,3.1532549 16.5865,3.79937908 15.793,5.09175163 C15.116625,6.19015033 14.778375,7.4049085 14.778375,8.73602614 C14.778375,9.73110458 14.9865,10.5839935 15.40275,11.294817 C15.871,12.1089608 16.5605,12.5999804 17.484,12.7938301 C17.73125,12.8456144 17.96525,12.8714444 18.1865,12.8714444 C19.44825,12.8714444 20.462875,12.2253203 21.243375,10.9329477 C21.919875,9.8215098 22.258,8.60675163 22.258,7.27575817 C22.258,6.26776471 22.049875,5.42766667 21.633625,4.72988235 L21.633625,4.72988235 Z M19.981625,8.3095817 C19.7995,9.16247059 19.47425,9.79567974 18.993,10.2221242 C18.61575,10.5581634 18.2645,10.7002288 17.93925,10.6356536 C17.627125,10.5710784 17.367,10.2997386 17.17175,9.79567974 C17.01575,9.39506536 16.93775,8.99445098 16.93775,8.61966667 C16.93775,8.29666667 16.96375,7.97354248 17.02875,7.67637255 C17.145875,7.14648366 17.367,6.6295098 17.71825,6.1384902 C18.1475,5.50515686 18.60275,5.24685621 19.071,5.33726144 C19.38325,5.4018366 19.6435,5.67330065 19.8385,6.17723529 C19.99475,6.57784967 20.072625,6.97846405 20.072625,7.35324837 C20.08575,7.68928758 20.046625,8.01228758 19.981625,8.30945752 L19.981625,8.3095817 Z" id="Shape" fill="#FFFFFF"></path>
        </g>
    </g>
</svg>