<svg version="1.1" id="Layer_1" xmlns="http://www.w3.org/2000/svg" xmlns:xlink="http://www.w3.org/1999/xlink" x="0px" y="0px"
	 width="100%" viewBox="0 0 714 232" enable-background="new 0 0 714 232" xml:space="preserve">
<path fill="#FFFFFF" opacity="1.000000" stroke="none" 
	d="
M715.000000,192.000000 
	C715.000000,205.663406 715.000000,219.326813 715.000000,232.992676 
	C477.060028,232.995117 239.120071,232.995117 1.090048,232.995117 
	C1.090048,155.745239 1.090048,78.490341 1.090048,1.117718 
	C238.999969,1.117718 476.999969,1.117718 715.000000,1.117718 
	C715.000000,38.085392 715.000000,75.076653 714.531372,112.533958 
	C707.133057,113.000000 700.203308,113.000000 692.895142,113.000000 
	C692.895142,105.761108 692.895142,99.021500 692.895142,92.205231 
	C686.414856,92.205231 680.325623,92.205231 674.047119,92.205231 
	C673.219299,99.132256 672.412842,105.880287 671.560364,113.013649 
	C667.204529,113.013649 662.786499,113.013649 658.195923,113.013649 
	C658.195923,119.135330 658.195923,124.867905 658.195923,130.991669 
	C662.784668,130.991669 667.197693,130.991669 672.000000,130.991669 
	C672.000000,144.477036 671.889709,157.576706 672.046753,170.673157 
	C672.124878,177.184601 673.912231,183.537170 679.226807,187.515717 
	C690.130859,195.678528 702.699951,193.396011 715.000000,192.000000 
M157.624832,22.105602 
	C143.611542,27.732841 129.608383,33.385471 115.582886,38.982117 
	C85.092094,51.148960 54.526711,63.132900 24.147623,75.572105 
	C18.324114,77.956635 14.573831,83.021278 13.993290,89.787315 
	C13.358700,97.183281 15.689681,103.474350 22.299397,106.969307 
	C36.157764,114.297081 50.274487,121.141106 64.381981,127.984123 
	C65.576302,128.563446 67.994133,128.210159 68.995537,127.327736 
	C73.856049,123.044769 78.427269,118.433502 83.667046,113.394066 
	C69.366249,106.207153 55.863190,99.421143 41.731415,92.319176 
	C83.725212,75.517509 125.142456,58.946522 166.559708,42.375530 
	C166.958359,42.594685 167.357010,42.813835 167.755676,43.032990 
	C151.307877,84.159897 134.860092,125.286804 118.412292,166.413712 
	C117.818237,166.316223 117.224174,166.218750 116.630112,166.121262 
	C110.082939,153.124847 103.535767,140.128433 96.600632,126.361900 
	C91.762169,131.394608 87.645767,135.986832 83.172516,140.200226 
	C80.879646,142.359909 80.931473,144.105652 82.245644,146.683807 
	C89.067787,160.067368 95.599274,173.600479 102.524513,186.929535 
	C106.180939,193.967087 112.472733,196.746002 120.281647,195.979324 
	C127.378006,195.282608 132.274704,191.205170 134.871857,184.888062 
	C142.110962,167.280228 148.975021,149.518600 156.052948,131.844055 
	C168.196594,101.519615 180.446182,71.237457 192.522049,40.886131 
	C195.405701,33.638397 193.765717,26.684410 188.373856,21.422430 
	C183.012451,16.190172 176.174408,14.693769 168.859177,17.608402 
	C165.351883,19.005827 161.868698,20.463701 157.624832,22.105602 
M321.500153,143.001663 
	C320.425476,145.061371 319.350800,147.121078 317.691467,150.301392 
	C305.625793,126.211876 294.061066,103.122444 282.653595,80.347000 
	C273.905975,80.347000 265.495117,80.347000 257.346649,80.347000 
	C257.346649,118.097534 257.346649,155.500534 257.346649,192.649826 
	C264.772797,192.649826 271.849274,192.649826 279.338074,192.649826 
	C279.338074,168.338028 279.338074,144.375519 279.338074,119.553329 
	C280.255646,120.848686 280.694885,121.325096 280.972778,121.882011 
	C288.662537,137.292770 296.473236,152.645615 303.944519,168.161789 
	C306.940887,174.384537 310.433350,178.744751 318.265472,177.090790 
	C320.967865,176.520111 323.892151,177.000000 326.518799,177.000000 
	C335.621429,158.533890 344.909821,140.505524 354.601471,122.696907 
	C355.114197,122.917419 355.626923,123.137932 356.139648,123.358444 
	C356.139648,146.462830 356.139648,169.567215 356.139648,192.766083 
	C363.534302,192.766083 370.605743,192.766083 377.766418,192.766083 
	C377.766418,155.129745 377.766418,117.727745 377.766418,80.000259 
	C370.240723,80.000259 362.938812,79.862549 355.651276,80.124207 
	C354.301605,80.172661 352.418121,81.532631 351.779724,82.793083 
	C341.745026,102.606331 331.874084,122.502510 321.500153,143.001663 
M390.931305,134.536209 
	C390.530182,136.525925 390.129059,138.515640 389.628235,141.000000 
	C393.596130,141.000000 396.895508,141.000000 400.194885,141.000000 
	C403.681824,141.000000 407.168762,141.000000 410.603027,141.000000 
	C412.465729,131.777664 419.740387,128.554779 429.136932,128.996826 
	C436.755646,129.355240 440.137421,133.618164 442.461823,145.999969 
	C441.434723,145.999969 440.443268,145.972610 439.453705,146.004211 
	C429.223053,146.331024 418.811951,145.586716 408.805664,147.260529 
	C394.667297,149.625549 386.266663,158.486969 388.095459,174.460709 
	C388.909424,181.570190 392.192200,187.289642 398.953064,191.138901 
	C406.429565,195.395630 414.288330,195.026550 422.264374,194.995544 
	C428.354919,194.971863 433.576294,192.786499 437.947144,188.558777 
	C439.653809,186.908005 441.342316,185.238480 443.620575,183.008316 
	C444.364075,186.964050 444.893494,189.780731 445.431000,192.640488 
	C451.520569,192.640488 457.728912,192.640488 463.999969,192.640488 
	C463.999969,174.957123 464.619690,157.603546 463.792725,140.319168 
	C463.192902,127.781670 457.309418,118.669685 444.330139,114.047493 
	C436.128815,111.126808 427.748932,110.214577 418.966858,111.897865 
	C405.768311,114.427666 395.190155,119.834160 390.931305,134.536209 
M633.925354,114.405472 
	C612.008728,105.600471 584.939270,114.164574 577.429260,138.072647 
	C569.722534,162.606750 579.312988,188.181564 606.381165,194.806931 
	C627.158508,199.892532 651.135925,186.681046 654.302612,168.000000 
	C648.132141,168.000000 641.968079,167.847763 635.821045,168.104568 
	C634.238037,168.170700 632.211426,169.130127 631.242065,170.354736 
	C627.298279,175.337082 621.820496,178.268295 616.036987,177.724701 
	C605.393555,176.724319 597.641907,171.137421 596.715515,158.703171 
	C616.799500,158.703171 636.855408,158.703171 656.924316,158.703171 
	C657.954834,139.455856 653.585876,123.403069 633.925354,114.405472 
M538.720581,209.799286 
	C535.276245,209.799286 531.831909,209.799286 528.197937,209.799286 
	C528.197937,216.456360 528.197937,222.526443 528.197937,229.395309 
	C533.776672,228.916702 539.143005,228.654160 544.453247,227.961578 
	C557.493164,226.260925 564.740417,218.982651 564.896729,205.362457 
	C565.232971,176.065994 565.003357,146.762985 564.990051,117.462662 
	C564.989380,116.031143 564.842896,114.599686 564.771362,113.296646 
	C557.660095,113.296646 550.924866,113.296646 544.000000,113.296646 
	C544.000000,115.237511 544.000000,116.883041 544.000000,118.528564 
	C544.000000,145.331711 544.069519,172.135223 543.922485,198.937561 
	C543.901306,202.804092 544.387451,207.375687 538.720581,209.799286 
M509.000000,112.500000 
	C509.000000,139.259369 509.000000,166.018738 509.000000,192.713196 
	C516.643677,192.713196 523.716003,192.713196 530.716309,192.713196 
	C530.716309,154.025253 530.716309,115.624763 530.716309,77.286751 
	C523.356628,77.286751 516.283630,77.286751 509.000000,77.286751 
	C509.000000,88.881538 509.000000,100.190773 509.000000,112.500000 
M496.253754,192.943085 
	C496.502502,191.373322 496.962555,189.804214 496.967499,188.233658 
	C497.019928,171.568634 497.000000,154.903381 497.000000,138.238190 
	C497.000000,129.951752 497.000000,121.665298 497.000000,113.207718 
	C489.520172,113.207718 482.448822,113.207718 475.209656,113.207718 
	C475.209656,139.819092 475.209656,166.222565 475.209656,192.996063 
	C482.037170,192.996063 488.661774,192.996063 496.253754,192.943085 
M363.000000,52.363930 
	C363.000000,40.605057 363.000000,28.846182 363.000000,17.332569 
	C359.941559,17.332569 357.532379,17.332569 354.705872,17.332569 
	C354.705872,25.656569 354.705872,33.652081 354.705872,42.937996 
	C349.629486,35.445297 345.024323,29.219067 341.062439,22.607391 
	C338.240387,17.897940 334.857574,15.716737 329.321167,17.389360 
	C329.321167,30.482824 329.321167,43.693256 329.321167,56.667656 
	C332.058044,56.667656 334.467224,56.667656 337.288727,56.667656 
	C337.288727,48.353405 337.288727,40.367119 337.288727,31.602398 
	C342.055756,38.589386 346.904205,44.515755 350.383911,51.159058 
	C353.310272,56.745819 357.110535,57.906281 363.000000,56.588337 
	C363.000000,55.569958 363.000000,54.449265 363.000000,52.363930 
M453.391602,40.000000 
	C454.832550,40.000000 456.273529,40.000000 458.100494,40.000000 
	C458.100494,45.908966 458.100494,51.330082 458.100494,56.752117 
	C460.906891,56.752117 463.311401,56.752117 465.754333,56.752117 
	C465.754333,43.425049 465.754333,30.347218 465.754333,17.246258 
	C463.096954,17.246258 460.691895,17.246258 457.896759,17.246258 
	C457.896759,22.564167 457.896759,27.648684 457.896759,32.745743 
	C452.087677,32.745743 446.682465,32.745743 440.890503,32.745743 
	C440.890503,27.414955 440.890503,22.326414 440.890503,17.252815 
	C438.085236,17.252815 435.680176,17.252815 433.249969,17.252815 
	C433.249969,30.584938 433.249969,43.662838 433.249969,56.748787 
	C435.913361,56.748787 438.317993,56.748787 441.111938,56.748787 
	C441.111938,51.092194 441.111938,45.675476 441.111938,40.000000 
	C445.145447,40.000000 448.781403,40.000000 453.391602,40.000000 
M402.876984,16.351496 
	C390.334625,14.950482 382.947418,19.770128 379.810425,31.689676 
	C377.500397,40.467243 379.462067,48.292633 386.680817,53.989765 
	C392.219147,58.360691 400.904419,59.934570 409.388916,55.151501 
	C414.452362,52.297016 415.606171,49.873917 414.333710,44.108261 
	C412.027863,44.108261 409.718872,44.108261 407.464691,44.108261 
	C404.130035,50.780186 398.478058,52.216915 392.356812,48.043171 
	C387.165680,44.503635 386.043549,34.158783 390.214752,28.296091 
	C394.160431,22.750320 401.895844,22.013569 405.680664,27.443798 
	C408.252594,31.133816 410.990326,31.556610 414.690063,30.661320 
	C415.409668,22.164070 411.833191,17.811090 402.876984,16.351496 
M258.000854,30.045746 
	C260.047241,32.573582 261.696991,35.658936 264.249725,37.475052 
	C266.890533,39.353851 270.612885,39.648560 273.469025,41.311390 
	C275.339020,42.400078 277.475006,44.591747 277.665253,46.474003 
	C277.798828,47.795929 274.980255,50.446339 273.253815,50.657841 
	C271.227173,50.906124 267.520813,49.631577 267.042450,48.188770 
	C265.124420,42.403976 261.026001,44.152477 257.245239,44.149734 
	C255.766632,54.890640 267.524170,58.981529 274.802948,57.927151 
	C281.697021,56.928497 285.681183,53.325008 285.999573,48.499481 
	C286.573303,39.804043 284.525879,36.744396 276.464294,33.980343 
	C273.907990,33.103874 271.314941,32.211395 268.946930,30.938799 
	C265.647736,29.165789 265.730865,25.894041 268.917267,24.009052 
	C272.510620,21.883310 274.546753,23.030350 277.403748,28.788338 
	C279.846954,28.788338 282.290161,28.788338 284.669800,28.788338 
	C286.738220,21.459982 281.048492,16.353653 271.981567,16.098978 
	C264.253784,15.881917 256.359711,19.885817 258.000854,30.045746 
M493.956512,99.575928 
	C494.875946,98.948837 496.019348,98.498505 496.677124,97.664932 
	C500.021393,93.426704 500.043274,88.413170 498.145813,83.912628 
	C495.832581,78.426003 490.489685,76.695641 484.957764,77.088982 
	C474.470337,77.834663 469.676147,87.479126 474.945465,96.619301 
	C478.112122,102.112206 485.121338,103.440613 493.956512,99.575928 
M543.368958,82.105553 
	C537.524902,91.111496 543.060120,99.569733 551.242493,101.737198 
	C556.235046,103.059708 564.757568,99.830391 566.773621,95.707489 
	C568.576416,92.020630 566.571960,82.165329 563.284790,79.866539 
	C558.466431,76.497009 550.753357,74.829788 543.368958,82.105553 
M303.000000,49.436268 
	C303.000000,51.880856 303.000000,54.325443 303.000000,56.736649 
	C305.934967,56.736649 308.339966,56.736649 310.737183,56.736649 
	C310.737183,43.390800 310.737183,30.310036 310.737183,17.266720 
	C308.060547,17.266720 305.654388,17.266720 303.000000,17.266720 
	C303.000000,27.838943 303.000000,38.146568 303.000000,49.436268 
z"/>
<path fill="#000000" opacity="1.000000" stroke="none" 
	d="
M715.000000,191.666672 
	C702.699951,193.396011 690.130859,195.678528 679.226807,187.515717 
	C673.912231,183.537170 672.124878,177.184601 672.046753,170.673157 
	C671.889709,157.576706 672.000000,144.477036 672.000000,130.991669 
	C667.197693,130.991669 662.784668,130.991669 658.195923,130.991669 
	C658.195923,124.867905 658.195923,119.135330 658.195923,113.013649 
	C662.786499,113.013649 667.204529,113.013649 671.560364,113.013649 
	C672.412842,105.880287 673.219299,99.132256 674.047119,92.205231 
	C680.325623,92.205231 686.414856,92.205231 692.895142,92.205231 
	C692.895142,99.021500 692.895142,105.761108 692.895142,113.000000 
	C700.203308,113.000000 707.133057,113.000000 714.531372,113.000000 
	C715.000000,118.688042 715.000000,124.376076 714.531372,130.532059 
	C707.144531,131.000000 700.226318,131.000000 693.000671,131.000000 
	C693.000671,143.223999 692.858154,154.978119 693.062866,166.726181 
	C693.160400,172.321335 695.936035,174.766846 701.664795,174.971558 
	C705.732666,175.116928 709.809998,174.999725 713.439514,174.999725 
	C714.007507,180.459686 714.503723,185.229843 715.000000,190.000000 
	C715.000000,190.444443 715.000000,190.888901 715.000000,191.666672 
z"/>
<path fill="#FFFFFF" opacity="1.000000" stroke="none" 
	d="
M715.000000,189.531342 
	C714.503723,185.229843 714.007507,180.459686 713.439514,174.999725 
	C709.809998,174.999725 705.732666,175.116928 701.664795,174.971558 
	C695.936035,174.766846 693.160400,172.321335 693.062866,166.726181 
	C692.858154,154.978119 693.000671,143.223999 693.000671,131.000000 
	C700.226318,131.000000 707.144531,131.000000 714.531372,131.000000 
	C715.000000,150.354233 715.000000,169.708450 715.000000,189.531342 
z"/>
<path fill="#857AEB" opacity="1.000000" stroke="none" 
	d="
M157.999710,21.999903 
	C161.868698,20.463701 165.351883,19.005827 168.859177,17.608402 
	C176.174408,14.693769 183.012451,16.190172 188.373856,21.422430 
	C193.765717,26.684410 195.405701,33.638397 192.522049,40.886131 
	C180.446182,71.237457 168.196594,101.519615 156.052948,131.844055 
	C148.975021,149.518600 142.110962,167.280228 134.871857,184.888062 
	C132.274704,191.205170 127.378006,195.282608 120.281647,195.979324 
	C112.472733,196.746002 106.180939,193.967087 102.524513,186.929535 
	C95.599274,173.600479 89.067787,160.067368 82.245644,146.683807 
	C80.931473,144.105652 80.879646,142.359909 83.172516,140.200226 
	C87.645767,135.986832 91.762169,131.394608 96.600632,126.361900 
	C103.535767,140.128433 110.082939,153.124847 116.630112,166.121262 
	C117.224174,166.218750 117.818237,166.316223 118.412292,166.413712 
	C134.860092,125.286804 151.307877,84.159897 167.755676,43.032990 
	C167.357010,42.813835 166.958359,42.594685 166.559708,42.375530 
	C125.142456,58.946522 83.725212,75.517509 41.731415,92.319176 
	C55.863190,99.421143 69.366249,106.207153 83.667046,113.394066 
	C78.427269,118.433502 73.856049,123.044769 68.995537,127.327736 
	C67.994133,128.210159 65.576302,128.563446 64.381981,127.984123 
	C50.274487,121.141106 36.157764,114.297081 22.299397,106.969307 
	C15.689681,103.474350 13.358700,97.183281 13.993290,89.787315 
	C14.573831,83.021278 18.324114,77.956635 24.147623,75.572105 
	C54.526711,63.132900 85.092094,51.148960 115.582886,38.982117 
	C129.608383,33.385471 143.611542,27.732841 157.999710,21.999903 
z"/>
<path fill="#000000" opacity="1.000000" stroke="none" 
	d="
M321.732849,142.690643 
	C331.874084,122.502510 341.745026,102.606331 351.779724,82.793083 
	C352.418121,81.532631 354.301605,80.172661 355.651276,80.124207 
	C362.938812,79.862549 370.240723,80.000259 377.766418,80.000259 
	C377.766418,117.727745 377.766418,155.129745 377.766418,192.766083 
	C370.605743,192.766083 363.534302,192.766083 356.139648,192.766083 
	C356.139648,169.567215 356.139648,146.462830 356.139648,123.358444 
	C355.626923,123.137932 355.114197,122.917419 354.601471,122.696907 
	C344.909821,140.505524 335.621429,158.533890 326.518799,177.000000 
	C323.892151,177.000000 320.967865,176.520111 318.265472,177.090790 
	C310.433350,178.744751 306.940887,174.384537 303.944519,168.161789 
	C296.473236,152.645615 288.662537,137.292770 280.972778,121.882011 
	C280.694885,121.325096 280.255646,120.848686 279.338074,119.553329 
	C279.338074,144.375519 279.338074,168.338028 279.338074,192.649826 
	C271.849274,192.649826 264.772797,192.649826 257.346649,192.649826 
	C257.346649,155.500534 257.346649,118.097534 257.346649,80.347000 
	C265.495117,80.347000 273.905975,80.347000 282.653595,80.347000 
	C294.061066,103.122444 305.625793,126.211876 317.691467,150.301392 
	C319.350800,147.121078 320.425476,145.061371 321.732849,142.690643 
z"/>
<path fill="#000000" opacity="1.000000" stroke="none" 
	d="
M390.963837,134.114166 
	C395.190155,119.834160 405.768311,114.427666 418.966858,111.897865 
	C427.748932,110.214577 436.128815,111.126808 444.330139,114.047493 
	C457.309418,118.669685 463.192902,127.781670 463.792725,140.319168 
	C464.619690,157.603546 463.999969,174.957123 463.999969,192.640488 
	C457.728912,192.640488 451.520569,192.640488 445.431000,192.640488 
	C444.893494,189.780731 444.364075,186.964050 443.620575,183.008316 
	C441.342316,185.238480 439.653809,186.908005 437.947144,188.558777 
	C433.576294,192.786499 428.354919,194.971863 422.264374,194.995544 
	C414.288330,195.026550 406.429565,195.395630 398.953064,191.138901 
	C392.192200,187.289642 388.909424,181.570190 388.095459,174.460709 
	C386.266663,158.486969 394.667297,149.625549 408.805664,147.260529 
	C418.811951,145.586716 429.223053,146.331024 439.453705,146.004211 
	C440.443268,145.972610 441.434723,145.999969 442.461823,145.999969 
	C440.137421,133.618164 436.755646,129.355240 429.136932,128.996826 
	C419.740387,128.554779 412.465729,131.777664 410.603027,141.000000 
	C407.168762,141.000000 403.681824,141.000000 400.194885,141.000000 
	C396.895508,141.000000 393.596130,141.000000 389.628235,141.000000 
	C390.129059,138.515640 390.530182,136.525925 390.963837,134.114166 
M423.111084,159.366974 
	C421.689148,159.578613 420.243896,159.691406 418.849640,160.020340 
	C414.580811,161.027451 411.134094,163.515396 410.796082,167.909836 
	C410.598328,170.480713 411.803528,174.323792 413.726807,175.677109 
	C419.703766,179.882721 431.588806,179.652161 436.741791,171.513657 
	C439.074402,167.829514 440.627991,163.652130 442.860107,159.024475 
	C435.845734,159.024475 429.902740,159.024475 423.111084,159.366974 
z"/>
<path fill="#000000" opacity="1.000000" stroke="none" 
	d="
M634.214111,114.678665 
	C653.585876,123.403069 657.954834,139.455856 656.924316,158.703171 
	C636.855408,158.703171 616.799500,158.703171 596.715515,158.703171 
	C597.641907,171.137421 605.393555,176.724319 616.036987,177.724701 
	C621.820496,178.268295 627.298279,175.337082 631.242065,170.354736 
	C632.211426,169.130127 634.238037,168.170700 635.821045,168.104568 
	C641.968079,167.847763 648.132141,168.000000 654.302612,168.000000 
	C651.135925,186.681046 627.158508,199.892532 606.381165,194.806931 
	C579.312988,188.181564 569.722534,162.606750 577.429260,138.072647 
	C584.939270,114.164574 612.008728,105.600471 634.214111,114.678665 
M612.504272,145.000000 
	C619.942810,145.000000 627.381409,145.000000 634.863464,145.000000 
	C633.510559,135.015594 626.706482,129.005432 617.112671,129.000000 
	C606.407654,128.993912 598.482117,135.205139 597.145569,145.000000 
	C601.964844,145.000000 606.735596,145.000000 612.504272,145.000000 
z"/>
<path fill="#000000" opacity="1.000000" stroke="none" 
	d="
M539.011719,209.485596 
	C544.387451,207.375687 543.901306,202.804092 543.922485,198.937561 
	C544.069519,172.135223 544.000000,145.331711 544.000000,118.528564 
	C544.000000,116.883041 544.000000,115.237511 544.000000,113.296646 
	C550.924866,113.296646 557.660095,113.296646 564.771362,113.296646 
	C564.842896,114.599686 564.989380,116.031143 564.990051,117.462662 
	C565.003357,146.762985 565.232971,176.065994 564.896729,205.362457 
	C564.740417,218.982651 557.493164,226.260925 544.453247,227.961578 
	C539.143005,228.654160 533.776672,228.916702 528.197937,229.395309 
	C528.197937,222.526443 528.197937,216.456360 528.197937,209.799286 
	C531.831909,209.799286 535.276245,209.799286 539.011719,209.485596 
z"/>
<path fill="#000000" opacity="1.000000" stroke="none" 
	d="
M509.000000,112.000000 
	C509.000000,100.190773 509.000000,88.881538 509.000000,77.286751 
	C516.283630,77.286751 523.356628,77.286751 530.716309,77.286751 
	C530.716309,115.624763 530.716309,154.025253 530.716309,192.713196 
	C523.716003,192.713196 516.643677,192.713196 509.000000,192.713196 
	C509.000000,166.018738 509.000000,139.259369 509.000000,112.000000 
z"/>
<path fill="#000000" opacity="1.000000" stroke="none" 
	d="
M495.770050,192.969574 
	C488.661774,192.996063 482.037170,192.996063 475.209656,192.996063 
	C475.209656,166.222565 475.209656,139.819092 475.209656,113.207718 
	C482.448822,113.207718 489.520172,113.207718 497.000000,113.207718 
	C497.000000,121.665298 497.000000,129.951752 497.000000,138.238190 
	C497.000000,154.903381 497.019928,171.568634 496.967499,188.233658 
	C496.962555,189.804214 496.502502,191.373322 495.770050,192.969574 
z"/>
<path fill="#000000" opacity="1.000000" stroke="none" 
	d="
M363.000000,52.846249 
	C363.000000,54.449265 363.000000,55.569958 363.000000,56.588337 
	C357.110535,57.906281 353.310272,56.745819 350.383911,51.159058 
	C346.904205,44.515755 342.055756,38.589386 337.288727,31.602398 
	C337.288727,40.367119 337.288727,48.353405 337.288727,56.667656 
	C334.467224,56.667656 332.058044,56.667656 329.321167,56.667656 
	C329.321167,43.693256 329.321167,30.482824 329.321167,17.389360 
	C334.857574,15.716737 338.240387,17.897940 341.062439,22.607391 
	C345.024323,29.219067 349.629486,35.445297 354.705872,42.937996 
	C354.705872,33.652081 354.705872,25.656569 354.705872,17.332569 
	C357.532379,17.332569 359.941559,17.332569 363.000000,17.332569 
	C363.000000,28.846182 363.000000,40.605057 363.000000,52.846249 
z"/>
<path fill="#000000" opacity="1.000000" stroke="none" 
	d="
M452.904480,40.000000 
	C448.781403,40.000000 445.145447,40.000000 441.111938,40.000000 
	C441.111938,45.675476 441.111938,51.092194 441.111938,56.748787 
	C438.317993,56.748787 435.913361,56.748787 433.249969,56.748787 
	C433.249969,43.662838 433.249969,30.584938 433.249969,17.252815 
	C435.680176,17.252815 438.085236,17.252815 440.890503,17.252815 
	C440.890503,22.326414 440.890503,27.414955 440.890503,32.745743 
	C446.682465,32.745743 452.087677,32.745743 457.896759,32.745743 
	C457.896759,27.648684 457.896759,22.564167 457.896759,17.246258 
	C460.691895,17.246258 463.096954,17.246258 465.754333,17.246258 
	C465.754333,30.347218 465.754333,43.425049 465.754333,56.752117 
	C463.311401,56.752117 460.906891,56.752117 458.100494,56.752117 
	C458.100494,51.330082 458.100494,45.908966 458.100494,40.000000 
	C456.273529,40.000000 454.832550,40.000000 452.904480,40.000000 
z"/>
<path fill="#000000" opacity="1.000000" stroke="none" 
	d="
M403.190369,16.647659 
	C411.833191,17.811090 415.409668,22.164070 414.690063,30.661320 
	C410.990326,31.556610 408.252594,31.133816 405.680664,27.443798 
	C401.895844,22.013569 394.160431,22.750320 390.214752,28.296091 
	C386.043549,34.158783 387.165680,44.503635 392.356812,48.043171 
	C398.478058,52.216915 404.130035,50.780186 407.464691,44.108261 
	C409.718872,44.108261 412.027863,44.108261 414.333710,44.108261 
	C415.606171,49.873917 414.452362,52.297016 409.388916,55.151501 
	C400.904419,59.934570 392.219147,58.360691 386.680817,53.989765 
	C379.462067,48.292633 377.500397,40.467243 379.810425,31.689676 
	C382.947418,19.770128 390.334625,14.950482 403.190369,16.647659 
z"/>
<path fill="#000000" opacity="1.000000" stroke="none" 
	d="
M258.000427,29.619526 
	C256.359711,19.885817 264.253784,15.881917 271.981567,16.098978 
	C281.048492,16.353653 286.738220,21.459982 284.669800,28.788338 
	C282.290161,28.788338 279.846954,28.788338 277.402527,28.788418 
	C274.546753,23.030350 272.510620,21.883310 268.917267,24.009052 
	C265.730865,25.894041 265.647736,29.165789 268.946930,30.938799 
	C271.314941,32.211395 273.907990,33.103874 276.464294,33.980343 
	C284.525879,36.744396 286.573303,39.804043 285.999573,48.499481 
	C285.681183,53.325008 281.697021,56.928497 274.802948,57.927151 
	C267.524170,58.981529 255.766632,54.890640 257.245239,44.149734 
	C261.026001,44.152477 265.124420,42.403976 267.042450,48.188770 
	C267.520813,49.631577 271.227173,50.906124 273.253815,50.657841 
	C274.980255,50.446339 277.798828,47.795929 277.665253,46.474003 
	C277.475006,44.591747 275.339020,42.400078 273.469025,41.311390 
	C270.612885,39.648560 266.890533,39.353851 264.249725,37.475052 
	C261.696991,35.658936 260.047241,32.573582 258.000427,29.619526 
z"/>
<path fill="#000000" opacity="1.000000" stroke="none" 
	d="
M493.650146,99.841080 
	C485.121338,103.440613 478.112122,102.112206 474.945465,96.619301 
	C469.676147,87.479126 474.470337,77.834663 484.957764,77.088982 
	C490.489685,76.695641 495.832581,78.426003 498.145813,83.912628 
	C500.043274,88.413170 500.021393,93.426704 496.677124,97.664932 
	C496.019348,98.498505 494.875946,98.948837 493.650146,99.841080 
z"/>
<path fill="#000000" opacity="1.000000" stroke="none" 
	d="
M543.658813,81.843605 
	C550.753357,74.829788 558.466431,76.497009 563.284790,79.866539 
	C566.571960,82.165329 568.576416,92.020630 566.773621,95.707489 
	C564.757568,99.830391 556.235046,103.059708 551.242493,101.737198 
	C543.060120,99.569733 537.524902,91.111496 543.658813,81.843605 
z"/>
<path fill="#000000" opacity="1.000000" stroke="none" 
	d="
M303.000000,48.945229 
	C303.000000,38.146568 303.000000,27.838943 303.000000,17.266720 
	C305.654388,17.266720 308.060547,17.266720 310.737183,17.266720 
	C310.737183,30.310036 310.737183,43.390800 310.737183,56.736649 
	C308.339966,56.736649 305.934967,56.736649 303.000000,56.736649 
	C303.000000,54.325443 303.000000,51.880856 303.000000,48.945229 
z"/>
<path fill="#FFFFFF" opacity="1.000000" stroke="none" 
	d="
M423.535400,159.195724 
	C429.902740,159.024475 435.845734,159.024475 442.860107,159.024475 
	C440.627991,163.652130 439.074402,167.829514 436.741791,171.513657 
	C431.588806,179.652161 419.703766,179.882721 413.726807,175.677109 
	C411.803528,174.323792 410.598328,170.480713 410.796082,167.909836 
	C411.134094,163.515396 414.580811,161.027451 418.849640,160.020340 
	C420.243896,159.691406 421.689148,159.578613 423.535400,159.195724 
z"/>
<path fill="#FFFFFF" opacity="1.000000" stroke="none" 
	d="
M612.005310,145.000000 
	C606.735596,145.000000 601.964844,145.000000 597.145569,145.000000 
	C598.482117,135.205139 606.407654,128.993912 617.112671,129.000000 
	C626.706482,129.005432 633.510559,135.015594 634.863464,145.000000 
	C627.381409,145.000000 619.942810,145.000000 612.005310,145.000000 
z"/>
</svg>